grf
version=1
nRows=15
nColumns=37
inDegrees=no
endheader
time	ground_force_1_vx	ground_force_1_vy	ground_force_1_vz	ground_force_1_px	ground_force_1_py	ground_force_1_pz	ground_moment_1_mx	ground_moment_1_my	ground_moment_1_mz	ground_force_2_vx	ground_force_2_vy	ground_force_2_vz	ground_force_2_px	ground_force_2_py	ground_force_2_pz	ground_moment_2_mx	ground_moment_2_my	ground_moment_2_mz	ground_force_3_vx	ground_force_3_vy	ground_force_3_vz	ground_force_3_px	ground_force_3_py	ground_force_3_pz	ground_moment_3_mx	ground_moment_3_my	ground_moment_3_mz	ground_force_4_vx	ground_force_4_vy	ground_force_4_vz	ground_force_4_px	ground_force_4_py	ground_force_4_pz	ground_moment_4_mx	ground_moment_4_my	ground_moment_4_mz
      0.00000000	      0.00000000	     -0.00000000	      0.00000000	      0.00000000	      0.00000000	      0.00000000	      0.00000000	      0.00000000	      0.00000000	      3.54948306	     30.03876877	   -370.77120972	   -295.45136064	  -1040.05390615	      0.00000000	      0.00000000	      0.00000000	   1014.20887441	    -19.18080197	    -93.84759354	   -529.09631348	   -217.57627245	   -691.52541547	      0.00000000	      0.00000000	     -0.00000000	  -2835.17215160	      0.00000000	     -0.00000000	      0.00000000	      0.00000000	      0.00000000	      0.00000000	      0.00000000	      0.00000000	      0.00000000
      0.01000000	      0.00000000	     -0.00000000	      0.00000000	      0.00000000	      0.00000000	      0.00000000	      0.00000000	      0.00000000	      0.00000000	      2.49667788	     30.73264885	   -374.50335693	   -295.90210309	  -1040.31021569	      0.00000000	      0.00000000	      0.00000000	    797.15222341	    -19.85232412	    -93.99116343	   -526.30505371	   -216.12914120	   -691.79001826	      0.00000000	      0.00000000	      0.00000000	  -2702.43796001	      0.00000000	     -0.00000000	      0.00000000	      0.00000000	      0.00000000	      0.00000000	      0.00000000	      0.00000000	      0.00000000
      0.02000000	      0.00000000	     -0.00000000	      0.00000000	      0.00000000	      0.00000000	      0.00000000	      0.00000000	      0.00000000	      0.00000000	      2.78308702	     30.64261055	   -380.73074341	   -295.51354147	  -1040.93915685	      0.00000000	      0.00000000	      0.00000000	    936.61083624	    -19.55073035	    -94.11530896	   -521.98724365	   -215.20370059	   -692.27721038	      0.00000000	      0.00000000	     -0.00000000	  -2585.50472715	      0.00000000	     -0.00000000	      0.00000000	      0.00000000	      0.00000000	      0.00000000	      0.00000000	      0.00000000	      0.00000000
      0.03000000	      0.00000000	     -0.00000000	      0.00000000	      0.00000000	      0.00000000	      0.00000000	      0.00000000	      0.00000000	      0.00000000	      3.21166444	     30.51826668	   -388.42813110	   -296.09635471	  -1039.66658574	      0.00000000	      0.00000000	      0.00000000	    846.24410118	    -19.30331481	    -94.13357375	   -517.30242920	   -214.09603669	   -692.01737454	      0.00000000	      0.00000000	     -0.00000000	  -2586.09759055	      0.00000000	     -0.00000000	      0.00000000	      0.00000000	      0.00000000	      0.00000000	      0.00000000	      0.00000000	      0.00000000
      0.04000000	      0.00000000	     -0.00000000	      0.00000000	      0.00000000	      0.00000000	      0.00000000	      0.00000000	      0.00000000	      0.00000000	      4.15678692	     30.60674667	   -400.43667603	   -296.02171884	  -1042.11267797	      0.00000000	      0.00000000	      0.00000000	    811.81519932	    -18.85988291	    -93.56802966	   -510.10974121	   -213.15969234	   -691.89003824	      0.00000000	      0.00000000	     -0.00000000	  -2484.25278969	      0.00000000	     -0.00000000	      0.00000000	      0.00000000	      0.00000000	      0.00000000	      0.00000000	      0.00000000	      0.00000000
      0.05000000	      0.00000000	     -0.00000000	      0.00000000	      0.00000000	      0.00000000	      0.00000000	      0.00000000	      0.00000000	      0.00000000	      4.96035194	     30.55464363	   -411.87551880	   -296.51055483	  -1041.13159289	      0.00000000	      0.00000000	      0.00000000	    722.97342948	    -18.22110028	    -92.10114129	   -500.96191406	   -212.36753288	   -692.07406441	      0.00000000	      0.00000000	     -0.00000000	  -2368.63400178	      0.00000000	     -0.00000000	      0.00000000	      0.00000000	      0.00000000	      0.00000000	      0.00000000	      0.00000000	      0.00000000
      0.06000000	      0.00000000	     -0.00000000	      0.00000000	      0.00000000	      0.00000000	      0.00000000	      0.00000000	      0.00000000	      0.00000000	      5.99564791	     30.78704262	   -424.15524292	   -296.27510046	  -1041.00198997	      0.00000000	      0.00000000	      0.00000000	    784.82966401	    -17.26333074	    -90.44242708	   -490.62945557	   -211.32108131	   -692.58239075	      0.00000000	      0.00000000	     -0.00000000	  -2433.98097702	      0.00000000	     -0.00000000	      0.00000000	      0.00000000	      0.00000000	      0.00000000	      0.00000000	      0.00000000	      0.00000000
      0.07000000	      0.00000000	     -0.00000000	      0.00000000	      0.00000000	      0.00000000	      0.00000000	      0.00000000	      0.00000000	      0.00000000	      6.76120949	     30.32310867	   -439.20706177	   -297.35127384	  -1041.23953343	      0.00000000	      0.00000000	      0.00000000	    714.16193994	    -17.03247847	    -88.79830021	   -480.08990479	   -210.37115461	   -693.38770543	      0.00000000	      0.00000000	     -0.00000000	  -2270.86405198	      0.00000000	     -0.00000000	      0.00000000	      0.00000000	      0.00000000	      0.00000000	      0.00000000	      0.00000000	      0.00000000
      0.08000000	      0.00000000	     -0.00000000	      0.00000000	      0.00000000	      0.00000000	      0.00000000	      0.00000000	      0.00000000	      0.00000000	      7.79342127	     30.12905502	   -453.20520020	   -297.76303022	  -1041.60517468	      0.00000000	      0.00000000	     -0.00000000	    511.65917068	    -17.05115692	    -86.36234134	   -470.52777100	   -209.81654087	   -693.73998830	      0.00000000	      0.00000000	     -0.00000000	  -2126.11371880	      0.00000000	     -0.00000000	      0.00000000	      0.00000000	      0.00000000	      0.00000000	      0.00000000	      0.00000000	      0.00000000
      0.09000000	      0.00000000	     -0.00000000	      0.00000000	      0.00000000	      0.00000000	      0.00000000	      0.00000000	      0.00000000	      0.00000000	     10.04215145	     29.71533775	   -467.31893921	   -298.00571367	  -1040.51845501	      0.00000000	      0.00000000	      0.00000000	    607.37520408	    -16.68058362	    -83.50167701	   -457.67489624	   -208.11294055	   -693.84239480	      0.00000000	      0.00000000	     -0.00000000	  -2027.36642037	      0.00000000	     -0.00000000	      0.00000000	      0.00000000	      0.00000000	      0.00000000	      0.00000000	      0.00000000	      0.00000000
      0.10000000	      0.00000000	     -0.00000000	      0.00000000	      0.00000000	      0.00000000	      0.00000000	      0.00000000	      0.00000000	      0.00000000	     11.45799923	     29.55648232	   -481.72076416	   -298.90020061	  -1041.66425155	      0.00000000	      0.00000000	      0.00000000	    461.23097429	    -16.05665907	    -80.07313397	   -442.52569580	   -206.87534444	   -695.65308073	      0.00000000	      0.00000000	     -0.00000000	  -2073.65390030	      0.00000000	     -0.00000000	      0.00000000	      0.00000000	      0.00000000	      0.00000000	      0.00000000	      0.00000000	      0.00000000
      0.11000000	      0.00000000	     -0.00000000	      0.00000000	      0.00000000	      0.00000000	      0.00000000	      0.00000000	      0.00000000	      0.00000000	     12.53913593	     29.55660629	   -496.02117920	   -299.62588585	  -1042.05716867	      0.00000000	      0.00000000	      0.00000000	    317.76905229	    -14.78003978	    -76.29470696	   -427.42178345	   -206.28154955	   -695.47991820	      0.00000000	      0.00000000	     -0.00000000	  -2036.66712640	      0.00000000	     -0.00000000	      0.00000000	      0.00000000	      0.00000000	      0.00000000	      0.00000000	      0.00000000	      0.00000000
      0.12000000	      0.00000000	     -0.00000000	      0.00000000	      0.00000000	      0.00000000	      0.00000000	      0.00000000	      0.00000000	      0.00000000	     13.70382118	     29.46216583	   -508.38442993	   -299.13324104	  -1041.69220777	      0.00000000	      0.00000000	      0.00000000	    261.55514520	    -13.37103335	    -72.70828130	   -409.36010742	   -204.26539387	   -697.28415695	      0.00000000	      0.00000000	     -0.00000000	  -2023.63493808	      0.00000000	     -0.00000000	      0.00000000	      0.00000000	      0.00000000	      0.00000000	      0.00000000	      0.00000000	      0.00000000
      0.13000000	      0.00000000	     -0.00000000	      0.00000000	      0.00000000	      0.00000000	      0.00000000	      0.00000000	      0.00000000	      0.00000000	     14.78063583	     30.04308701	   -521.72717285	   -298.60550109	  -1040.95609862	      0.00000000	      0.00000000	      0.00000000	    195.75387634	    -12.72005397	    -68.83685192	   -394.91171265	   -204.10175762	   -696.68983805	      0.00000000	      0.00000000	     -0.00000000	  -1904.08891475	      0.00000000	     -0.00000000	      0.00000000	      0.00000000	      0.00000000	      0.00000000	      0.00000000	      0.00000000	      0.00000000
      0.14000000	      0.00000000	     -0.00000000	      0.00000000	      0.00000000	      0.00000000	      0.00000000	      0.00000000	      0.00000000	      0.00000000	     15.11092663	     31.26428032	   -537.97424316	   -297.90430046	  -1042.03185076	      0.00000000	      0.00000000	     -0.00000000	    -15.65226203	    -11.32068342	    -64.72566887	   -373.40136719	   -201.71681977	   -700.07633920	      0.00000000	      0.00000000	     -0.00000000	  -1794.25961307	      0.00000000	     -0.00000000	      0.00000000	      0.00000000	      0.00000000	      0.00000000	      0.00000000	      0.00000000	      0.00000000
